<mxfile host="app.diagrams.net" modified="2022-12-21T06:38:29.726Z" agent="5.0 (Windows NT 10.0; Win64; x64) AppleWebKit/537.36 (KHTML, like Gecko) Chrome/108.0.0.0 Safari/537.36" version="20.7.2" etag="e0uuqw01esdzTLXfps3J" type="github">
  <diagram id="510Gy0Xiy9G8Ptjx0-fD" name="第 1 页">
    <mxGraphModel dx="1331" dy="1134" grid="1" gridSize="10" guides="1" tooltips="1" connect="1" arrows="1" fold="1" page="1" pageScale="1" pageWidth="827" pageHeight="1169" math="0" shadow="0">
      <root>
        <mxCell id="0" />
        <mxCell id="1" parent="0" />
        <mxCell id="F_8e08lb5eOL_79fJq-Y-1" value="" style="rounded=1;whiteSpace=wrap;html=1;" vertex="1" parent="1">
          <mxGeometry x="220" y="130" width="340" height="100" as="geometry" />
        </mxCell>
      </root>
    </mxGraphModel>
  </diagram>
</mxfile>
